<svg
  version="1.1"
  id="Layer_1"
  xmlns="http://www.w3.org/2000/svg"
  xmlns:xlink="http://www.w3.org/1999/xlink"
  x="0px"
  y="0px"
  width="100%"
  viewBox="0 0 512 512"
  enable-background="new 0 0 512 512"
  xml:space="preserve"
>
<path
    fill="#FFFFFF"
    opacity="1.000000"
    stroke="none"
    d="
M513.000000,338.531342 
	C506.956146,353.749359 495.500610,354.751923 485.736023,351.949615 
	C477.800690,349.672180 473.004852,342.810974 473.004028,334.533020 
	C472.996948,265.039459 473.065094,195.545746 472.940613,126.052406 
	C472.917938,113.396774 469.885010,101.553703 460.049683,92.595665 
	C453.199554,86.356583 445.399261,82.195045 435.777618,81.946739 
	C426.385376,81.704361 417.004303,81.027039 407.000000,80.508614 
	C407.000000,88.118080 406.726044,95.062737 407.065857,101.977219 
	C407.545197,111.731224 398.737274,121.643997 386.133514,121.231407 
	C375.869843,120.895424 366.353333,112.212395 366.929840,101.758636 
	C367.303101,94.990074 367.000000,88.184212 367.000000,81.201263 
	C336.539246,81.201263 306.469452,81.201263 276.000000,81.201263 
	C276.000000,85.004173 276.000000,88.627678 276.000000,92.251183 
	C276.000000,113.976891 270.956604,121.005524 255.371246,121.000008 
	C241.127457,120.994980 235.999985,113.317116 236.000000,91.993599 
	C236.000000,88.516792 236.000000,85.039986 236.000000,81.282639 
	C206.036987,81.282639 176.300079,81.282639 146.000000,81.282639 
	C146.000000,88.152077 145.732178,95.098961 146.064056,102.017075 
	C146.537598,111.888077 137.528885,121.430305 125.597542,121.241776 
	C114.737518,121.070190 105.528427,112.139702 105.945061,102.220482 
	C106.231491,95.400871 106.000000,88.559517 106.000000,81.573013 
	C97.576462,81.573013 89.210976,81.457390 80.851822,81.636566 
	C77.978218,81.698166 75.122421,82.508980 72.255035,82.955376 
	C55.796009,85.517776 41.799427,103.248039 41.925961,118.562584 
	C41.998219,127.308014 41.049984,136.059326 41.043510,144.808350 
	C40.973743,239.132919 40.946369,333.457611 41.063049,427.782074 
	C41.078903,440.597992 44.113480,452.629395 54.191845,461.634766 
	C60.956608,467.679382 68.600677,471.886139 78.057823,472.028900 
	C92.974327,472.253998 107.887779,472.942963 122.802917,472.955444 
	C224.460114,473.040527 326.117493,473.050171 427.774628,472.936920 
	C440.589111,472.922668 452.624664,469.894745 461.629333,459.813324 
	C467.671600,453.048553 471.810150,445.406250 472.051147,435.950256 
	C472.367828,423.523438 477.056183,416.722046 486.860199,413.632446 
	C497.925232,410.145386 509.463196,416.117188 512.641724,426.895508 
	C513.000000,432.688049 513.000000,438.376068 512.610413,444.673584 
	C512.135559,446.933777 512.338562,448.661285 511.922363,450.223877 
	C504.044067,479.803009 486.080078,500.141571 456.793457,509.946930 
	C452.952179,511.233002 448.935455,511.995178 445.000000,513.000000 
	C319.979095,513.000000 194.958206,513.000000 69.327141,512.610352 
	C67.231804,512.142090 65.689552,512.297058 64.269989,511.950073 
	C40.272507,506.083862 21.650360,492.868988 10.134057,470.811218 
	C6.225595,463.325134 3.996506,454.962219 0.999997,447.000000 
	C1.000000,333.312439 1.000000,219.624878 1.367204,105.354889 
	C6.220914,87.019203 14.716252,71.671875 28.809315,59.689575 
	C41.859047,48.594341 56.867531,41.987690 74.005035,41.101162 
	C84.564873,40.554901 95.175987,41.000000 106.000000,41.000000 
	C106.000000,34.986282 106.372620,29.487797 105.922340,24.057543 
	C104.988426,12.794734 109.600494,5.201883 120.000000,1.000000 
	C123.692909,1.000000 127.385826,1.000000 131.643890,1.358244 
	C140.652908,3.943005 145.968994,10.692608 145.995422,19.275572 
	C146.017685,26.504330 146.000000,33.733212 146.000000,40.706558 
	C176.422791,40.706558 206.109818,40.706558 236.000000,40.706558 
	C236.000000,34.948269 236.371277,29.451267 235.922592,24.022032 
	C234.992584,12.768557 239.620789,5.197042 250.000000,1.000000 
	C253.692917,1.000000 257.385834,1.000000 261.643890,1.358250 
	C270.653198,3.943085 275.969025,10.692533 275.995422,19.275925 
	C276.017670,26.504587 276.000000,33.733368 276.000000,40.706783 
	C306.756378,40.706783 336.776367,40.706783 367.000000,40.706783 
	C367.000000,34.948711 367.371277,29.451698 366.922546,24.022451 
	C365.992493,12.768857 370.620575,5.197104 381.000000,1.000000 
	C384.692902,1.000000 388.385834,1.000000 392.643890,1.358250 
	C401.674011,3.950387 406.969727,10.684710 406.995636,19.300718 
	C407.017029,26.410181 407.000000,33.519760 407.000000,41.000000 
	C416.187225,41.000000 424.968079,40.861282 433.741882,41.050259 
	C439.307892,41.170139 445.068115,40.963490 450.389679,42.301544 
	C479.884613,49.717808 499.803650,67.932152 509.875000,96.687630 
	C511.269196,100.668282 511.975342,104.889915 513.000000,109.000000 
	C513.000000,185.354233 513.000000,261.708466 513.000000,338.531342 
z"
  />
<path
    fill="#FFFFFF"
    opacity="1.000000"
    stroke="none"
    d="
M366.737152,250.761597 
	C358.349762,262.478912 350.269714,273.968719 342.086578,285.384674 
	C332.480225,298.786224 322.732178,312.086212 313.140747,325.498322 
	C301.780396,341.383942 291.093536,357.791809 279.037445,373.126312 
	C269.427826,385.349060 256.374054,391.885193 240.119614,392.175354 
	C223.854660,392.465698 210.976028,386.340179 199.661285,375.245941 
	C181.913956,357.844421 163.839172,340.777252 146.034027,323.434052 
	C141.780350,319.290741 136.848022,315.201477 134.332535,310.058014 
	C129.895752,300.986053 133.701370,289.793396 142.142944,284.475220 
	C148.382721,280.544128 160.345535,280.044006 168.306152,287.800568 
	C179.234970,298.449219 190.204132,309.056488 201.170975,319.666046 
	C210.701187,328.885773 220.214111,338.123871 229.807526,347.277496 
	C236.046555,353.230499 242.604126,352.732086 247.801544,345.648285 
	C260.232727,328.705322 272.514709,311.652435 284.794220,294.598785 
	C299.989288,273.496094 315.105530,252.336685 330.288208,231.225037 
	C335.765686,223.608566 341.556183,216.207626 346.803986,208.438232 
	C352.128082,200.556015 367.537415,200.237000 373.587402,205.085388 
	C383.501648,213.030533 385.193817,223.732224 378.014435,234.603622 
	C374.462494,239.982086 370.678101,245.207031 366.737152,250.761597 
z"
  />
</svg>
